# xmcd
#
# Track frame offsets:
# 150
# 17670
# 34827
# 51247
# 68019
# 87080
# 103961
# 121191
# 134662
# 152861
#
# Disc length: 2299 seconds
#
#
# Revision: 1
# Processed by: cddbd v1.5.2PL0 Copyright (c) Steve Scherf et al.
# Submitted via: FreeRIP 2.30 
#
DISCID=8508f90a
DTITLE=ลูกแพร     อุไรพร    - กันตรึม....อินเตอร์
DYEAR=2008
DGENRE=Country
TTITLE0=กันตรึมอินเตอร์
TTITLE1=ถามใจสาวชายแดน(กันตรึม)
TTITLE2=ฝากเพลงหว่านซะ(ก)
TTITLE3=หนุ่มท่าตะโก(กก)
TTITLE4=คืนเพ็ญไม่เห็นจันทร์(กร)
TTITLE5=กบปีนฟาร์ม(ร)
TTITLE6=น้ำตามือแผ่ง(ก)
TTITLE7=หมอลำเดือดร้อน(กก)
TTITLE8=ถืกจกใจ(ช)
TTITLE9=เจ็บส่ำใด๋อ้ายสิทน(ช)
EXTD=
EXTT0=
EXTT1=
EXTT2=
EXTT3=
EXTT4=
EXTT5=
EXTT6=
EXTT7=
EXTT8=
EXTT9=
PLAYORDER=
